<svg fill="none" viewBox="0 0 129 33" xmlns="http://www.w3.org/2000/svg" xmlns:xlink="http://www.w3.org/1999/xlink"><clipPath id="a"><path d="m0 0h129v33h-129z"/></clipPath><g clip-path="url(#a)"><path d="m71.681 24.084v6.248c-3.444 1.765-6.68 2.65-9.92 2.65-8.977 0-14.377-5.373-14.377-12.205 0-7.36 6.176-13.431 14.032-13.431a14.58 14.58 0 0 1 4.956.861c1.103.352 1.783.755 2.473.755.608 0 .776-1.028.862-1.63h.858l.776 8.457h-1.035a8.152 8.152 0 0 0 -2.237-4.006 8.65 8.65 0 0 0 -6.39-2.557c-5.396 0-8.545 4.363-8.545 10.926 0 6.484 3.843 10.88 8.976 10.88a10.304 10.304 0 0 0 4.584-1.15v-6.428c0-2.065-.322-2.862-3.245-2.862v-.968h10.842v.968c-2.696 0-2.61.88-2.61 3.492zm-29.861-10.319v18.767h-1.42l-18.395-19.388c.075.497.105.999.09 1.501v11.81c0 3.604 0 4.929 3.236 4.929v.968h-8.621v-.968c3.272 0 3.272-1.59 3.272-4.928v-13.464c0-2.001 0-4.197-3.445-4.197v-.921h8.142l15.126 15.849a5.944 5.944 0 0 1 -.086-1.32v-8.638c0-3.483.086-4.97-3.177-4.97v-.921h8.622v.926c-3.172 0-3.344 1.39-3.344 4.965zm-41.793 18.587v-.968c2.079 0 3.544-.177 3.544-3.243v-16.099c0-3.172-1.12-3.242-3.544-3.242v-.926h12.163v.926c-2.492 0-3.527.079-3.527 3.242v16.1c0 3.066 1.298 3.242 3.527 3.242v.968z" fill="#006"/><path d="m117.3 32.352a3.28 3.28 0 0 0 1.72-.528h1.03a6.923 6.923 0 0 0 5.342-2.182c2.074-2.024 3.281-5.373 3.281-8.592-.023-3.94-1.577-7.712-4.321-10.485-1.198-1.232-2.514-1.825-3.553-3.039a6.49 6.49 0 0 1 -1.257-1.76 4.134 4.134 0 0 0 -1.212-.968l-.69-.092c-.09-.162-.34-.162-.522-.162-1.361-.241-2.641.514-3.984.778v.18c.862.264 1.021 1.32 1.497 1.853l.418.602a4.76 4.76 0 0 0 2.069 1.39c1.126.175 2.074-.353 3.177-.089 3.899 1.941 6.667 6.485 6.667 11.014 0 6.485-3.631 9.032-5.9 9.032a2.437 2.437 0 0 1 -1.361-.51c.304-1.154.444-2.348.413-3.543 0-3.747-1.453-7.8-3.44-9.87-.949-.972-1.97-1.76-3.032-1.76-.522 0-1.039 0-1.384.464a1.764 1.764 0 0 0 -.604 1.496 4.79 4.79 0 0 1 -2.677.792 5.172 5.172 0 0 1 -3.218-1.232v-1.376l-.163-.704c-.086-.574-.086-1.278-.522-1.81l-.259-.705c-.426-1.056-.258-1.496-1.034-3.038-.173-.792-.953-1.232-1.466-1.76-.259-.176-.495-.968-.495-.968-.508-1.2-.858-2.51-1.974-3.242l-.263.176-.604-.463a1.063 1.063 0 0 0 -.93-.325l-.554-.44a4.533 4.533 0 0 0 -1.543 0l-.599.176c-.35.088-.78.352-.953.352a6.339 6.339 0 0 0 -1.901-.704l-.6.176c-.466.011-.918.164-1.297.44 0 0-.867.264-.945.264-.242.13-.455.31-.626.528a3.778 3.778 0 0 0 -1.293 1.756l-.345.704v1.287c-.345.277-.612.641-.776 1.056a15.869 15.869 0 0 0 -.522 4.71.681.681 0 0 1 -.454.533v1.362c.08.38.139.763.177 1.149 0 .351.086.704.086 1.056a.56.56 0 0 0 .082.351c0-.175.086.792.086.885a27.39 27.39 0 0 0 1.557 5.095c-.69 1.14-1.47 3.344-1.988 5.456a2.101 2.101 0 0 0 -1.556-.528 1.898 1.898 0 0 0 -1.362.796 1.362 1.362 0 0 0 -1.538.176c-.713.63-.713.978-.713 1.492a1.81 1.81 0 0 0 -.522 1.232 3.369 3.369 0 0 0 .522 2.028z" fill="#fff"/><path d="m95.521 32.352c-.325-.72-.5-1.5-.517-2.293a2.99 2.99 0 0 1 .258-1.482l-.948.185c-.259.329-.345.51-.345.68l.431-.17c.086 0 .172.17.259.352-.087.435-.604.435-.776.616-.259.88.517 1.389.603 2.112zm33.129-11.315c-.022-3.943-1.576-7.716-4.32-10.49-1.198-1.233-2.514-1.826-3.554-3.04a6.49 6.49 0 0 1 -1.257-1.76 4.34 4.34 0 0 0 -1.212-.967c.087.264.173.528.264.792h-.091a2.126 2.126 0 0 1 -1.207-.528l.34-.357c-.086-.162-.34-.162-.517-.162-1.362-.24-2.641.519-3.985.783v.176c.862.264 1.021 1.32 1.498 1.852h.499c.172 0 .454.176.608.176a1.812 1.812 0 0 0 -.172-.528.318.318 0 0 1 .517 0c.431.269 1.035-.176 1.466.528a2.697 2.697 0 0 0 -1.466.269c0 .093.263.25.173.43-.427-.18-.954 0-1.126-.337l-.086.065c.56.64 1.275 1.12 2.074 1.389 1.125.176 2.074-.352 3.177-.088 3.898 1.94 6.666 6.484 6.666 11.014 0 6.484-3.63 9.031-5.899 9.031a2.44 2.44 0 0 1 -1.362-.51 12.63 12.63 0 0 0 .408-3.542c0-3.747-1.447-7.8-3.435-9.87-.948-.968-1.974-1.76-3.032-1.76-.521 0-1.043 0-1.384.463a1.77 1.77 0 0 0 -.603 1.496c-.798.525-1.729.8-2.678.792a5.185 5.185 0 0 1 -3.222-1.232v-1.357c-.25-.088-1.107-.62-.681-1.019.192.071.369.178.522.315-.091-.574-.091-1.278-.522-1.81a1.13 1.13 0 0 1 -.685-.177 1.53 1.53 0 0 1 -.526-1.056c.267.463.694.264.953.528-.427-1.056-.259-1.496-1.035-3.038-.173-.792-.949-1.232-1.466-1.76-.259-.176-.345-.44-.663-.44-.34-.088-.34-.528-.34-.783.18.064.352.15.513.255-.513-1.2-.862-2.51-1.979-3.242l-.263.176h-1.362c.249-.174.51-.33.781-.463a1.063 1.063 0 0 0 -.93-.325c-.272.171-.572.29-.885.352h-.082c0-.264-.09-.616.413-.792a4.533 4.533 0 0 0 -1.543 0c-.086.44-.34.704-.34 1.056-.259.176-.35.463-.608.709.072-.539.19-1.07.349-1.589-.35.088-.78.352-.953.352a6.302 6.302 0 0 0 -1.901-.7c.521.348.263.964.349 1.39l-.35-.176c-.081-.352-.517-.616-.599-1.056-.466.011-.918.164-1.297.44v.088c.32.056.602.248.775.528-.603 0-1.034-.264-1.638-.264 0 0 0-.088-.081-.088-.243.13-.456.31-.627.528a3.8 3.8 0 0 0 -1.293 1.756c.172 0 .431 0 .517.088-.345.088-.517.528-.862.62v1.283c-.345.277-.612.641-.776 1.056a16.02 16.02 0 0 0 -.522 4.71.681.681 0 0 1 -.454.533v1.362c.256-.218.524-.421.803-.607v1.102c-.349 0-.603.464-.603.705 0 .352.086.704.086 1.056a.56.56 0 0 0 .082.351c0-.175.177-.351.454-.463a.743.743 0 0 1 .517-.176 3.435 3.435 0 0 0 -.517.968l-.259.264a.863.863 0 0 0 -.09.269 27.533 27.533 0 0 0 1.556 5.095c-.69 1.134-1.466 3.34-1.988 5.451a2.091 2.091 0 0 0 -1.552-.523 1.875 1.875 0 0 0 -1.361.792 1.362 1.362 0 0 0 -1.539.176c-.713.63-.713.977-.713 1.491a1.81 1.81 0 0 0 -.521 1.232 3.369 3.369 0 0 0 .522 2.029h12.942a2.329 2.329 0 0 0 -.431-.792c-.26-.528-.087-1.237-.087-1.765a8.3 8.3 0 0 1 .867-1.477c.082-.269 0-.269.082-.352l.603-.107c.345 0 .604-.26 1.035-.26.263.367.263-.268.699-.463.944-.175 1.815 0 2.342.704 0 .107.086.107.086.19h-.454a2.086 2.086 0 0 0 -1.652-.19c0 .19-.086.19-.086.464v.463c.34 0 .608.329.944.51.234-.306.587-.492.966-.51a.94.94 0 0 1 .723.244c.197.18.312.435.317.705v.968c.354.292.766.5 1.207.612a.627.627 0 0 1 -.69.356h-.69c-.086-.088-.258-.088-.258-.356-.234.334-.437.689-.608 1.06h9.984c-.168-.352-.345-.616-.431-.792a6.129 6.129 0 0 1 -.173-1.764l.953-1.306c.513 0 .949-.172 1.897-.26.177-.264 0-.37.776-.37.411-.017.821.047 1.207.19.091.18.091.18 0 .352-.168.176-.513-.172-.771-.084-.173.172.086.26.086.463.172.153-.776-.185-.776-.185s-.177.514-.259.695l.513.523c.173.264-.254.528-.254.797-.177-.088-.522-.352-.522-.269-.172.709 0 1.325-.082 2.029h.944l.087-1.496c.09-.885 1.125-2.455 1.729-2.455.314.02.614.146.848.361.159.33.559.51.559.681 0 .172-.236.269-.64.269-.164 0-.164-.269-.418-.463l-.517.55s.603.529.603.886c.035.333-.094.662-.345.88l-.517-1.056c-.263 0-.69.527-.69.787 0 .357-.177.532-.177 1.06h5.287a3.28 3.28 0 0 0 1.725-.527h1.03a6.922 6.922 0 0 0 5.36-2.182c2.074-2.043 3.281-5.391 3.281-8.605h-.023zm-18.561 7.966-.867.088a.777.777 0 0 1 .349.704 1.1 1.1 0 0 1 -.349.708c-.168-.18-.168-.463-.34-.708-.173 0-.259.463-.259.62.043.686.249 1.35.599 1.937h.781a15.62 15.62 0 0 1 -.264-2.112c.06-.43.186-.847.372-1.237zm-11.296 1.056c0-.348-.254-.436-.604-.436-.163 0-.558.26-.558.436 0 .357-.159 2.293-.159 2.293h.554c.272-.792.79-1.848.79-2.293zm-1.815-.088c-.091 0 .09.18-.772-.7-.177 0-.454.524-.454.7.02.814.174 1.618.454 2.38h.681c.014-.791.104-1.671.104-2.38zm22.564-22.097a.909.909 0 0 0 -.781-.538c-.258-.352-.603-.792-.953-.792.264 0 .608-.264 1.035-.264.177.464.522.704.608 1.056zm-2.596-1.853h-.948c-.168-.264-.454 0-.604 0s-.263 0-.595-.264c.504 0 .767-.264 1.199-.44.349.24.689.343.948.704zm-2.069 10.041c-.563-.171-.881-.435-1.398-.435a2.206 2.206 0 0 0 -1.035.435c-.259-.352.168-1.056.517-1.232a.643.643 0 0 1 .695 0c0 .528.581.264.907.463.15.232.256.49.314.76v.01zm-.078 1.279c-.485 0-.562-.07-.907-.07a1.35 1.35 0 0 0 -1.207.598.728.728 0 0 1 0-.746 1.835 1.835 0 0 1 1.034-.62c.513-.04.975.315 1.08.828zm1.975 1.94a5.054 5.054 0 0 0 -2.297-.718 3.848 3.848 0 0 0 -1.688.792l-.177-.792c.522-.088.522-.528.867-.528.258 0 .594-.088.835-.088.24 0 .399-.171.485-.171.418 0 .245.463.504.463s.454-.18.608-.18c.436-.024.776.685.863 1.213v.01zm.258 1.936c-.603 0-1.202-.171-1.293-.463-.173-.176 0-.528-.454-.528-.172 0-.427.264-.427.264-.163.088-.639-.264-.639 0 0 .463-.327.616-.758.616a1.129 1.129 0 0 1 -.518-.083v-.871c1.112 0 1.035-.352 1.516-.352.322 0 .567.176.826.176.454 0 .177-.176.608-.176s.604.352.862.463c.019.24.277.579.277.945v.01zm-.776 1.895c-.258-.088-.862-.176-.862-.44 0-.352-.177-.464-.595-.464a3.085 3.085 0 0 0 -1.062.264 2.383 2.383 0 0 1 -.344-.699c.373-.14.764-.226 1.161-.255.577 0 1.185 0 1.185.255 0 .361.517.459.517 1.33v.008zm-14.94-13.71c0 .088-.177.88-.177.88l-.689.18.431-1.903c.186.257.333.541.435.843zm16.574 16.785c.056.396-.027.8-.236 1.14l-.517-.793c.177-.264.177-.616.431-1.056.086-.004.331.62.331.709zm-2.051-1.144c-.613 0-.264-1.237-1.516-1.237-.241 0-.404.463-.749.533 0-.088.091-.62.091-.62a.807.807 0 0 1 .417-.705c.64 0 .481.264.972.463.241.141.508.23.785.264zm-5.383-4.98c-.776-.44-1.211-1.231-1.901-2.028.69 0 .867.709 1.384.797.193.151.367.327.517.523v.709zm-7.352-6.483c-.517 0-.776-.264-1.034-.755a4.204 4.204 0 0 1 0-1.052c.168.352.168.528.345.704.344-.176.344.26.431.348.13.237.218.495.258.764v-.01zm14.191 14.9a1.7 1.7 0 0 0 -.263.514c0-.427-.517-.686-.862-1.39l.345-.62c.335.169.562.5.603.88a.476.476 0 0 0 0 .37c0 .083.177.083.177.255v-.01zm-1.729-2.478c-.023.299-.081.594-.172.88-.595-.084-.595-.792-.681-.88-.399-.528-.976-.088-1.407-.088-.172-.528.087-.528.087-.88.263 0 .517-.181.762 0 .399-.181.644.264 1.062.264.098.246.215.485.349.713v-.011zm-4.334-3.613c0 .352-.172.616-.081.968-.177-.528-.522-1.056-.695-1.58 0-.083-.086-.083.091-.17.082 0 .427 0 .427.087.14.21.228.452.258.704zm-7.524-6.864c-.086.357-.431 0-.513 0h-.78c-.087-.176-.177-.264-.177-.463.349-.088.608-.264.866-.088.173.31.345.551.604.551zm1.901 1.982a1.147 1.147 0 0 1 -1.465-.088l.685-.305c.242.165.504.298.78.393zm4.416 4.98c0 .527-.086 1.148-.086 1.764-.259 0-.259-.176-.259-.533a9.273 9.273 0 0 0 -.454-1.496c-.167-.69-.599-1.278-.943-2.07-.087-.352-.522-.528-.867-.797a1.52 1.52 0 0 1 1.211.357c0 .176.087.264.345.528.604 0 .431.797.949 1.149a7.48 7.48 0 0 0 -.518.57c.277.175.536.273.622.527zm-3.372-2.6c0 .265-.163.353-.326.529a1.967 1.967 0 0 1 -.314-.616 2.459 2.459 0 0 1 .078-.792c.217.264.562.616.562.88zm8.06 7.972c0 .032-.159.19-.159.19a2.273 2.273 0 0 0 -1.161-.278c0-.348-.259-.792-.432-.792-.517 0-.453.352-.862.352l.776-.792c.086-.176.086-.176.259-.176.259.176.345.268.603.268a1.37 1.37 0 0 1 -.081.524c.254.176.417-.088.581.176.24.093.476.18.476.528zm-6.934-6.09c0 .17-.259.347-.345.347a2.08 2.08 0 0 1 -.513-.81c-.004-.341.084-.676.254-.969.086 0 .173.176.259.176.086.088 0 .357.086.616.259.176.431.486.259.64zm-6.631-8.444a8.097 8.097 0 0 0 -3.417-1.102c.026.207 0 .417-.077.611a11.166 11.166 0 0 1 2.805 1.723v.792c-.863-.88-1.816-1.76-2.887-2.024-.077.176-.408.352-.49.704a4.625 4.625 0 0 0 -1.992-.968c-.259 0-.431-.926-.431-.926.404-.146.722-.471.862-.885h.35c.263 0 .263-.176.263-.435 0-.533-1.126-.533-1.643-.533a2.19 2.19 0 0 0 -1.384.264c-.168 0-.082.269-.082.463 0 .084.254.26.254.26.177 0 .35-.176.526-.176-.09.532.082.796.6 1.06l-.087.857c-1.039 0-1.729.417-2.5.774a2.3 2.3 0 0 1 -.608-.705c-1.035.348-2.778 1.76-2.778 1.76v-.634c.763-.704 1.743-1.06 2.519-1.459v-.611c-.345-.176-.69 0-1.035 0-.729.101-1.42.397-2.001.857-.01-.2-.039-.4-.086-.593.953-.528 2.087-.968 3.208-.792v-.357c-.086-.176-.086-.435-.259-.435-.517-.533-1.034-1.325-1.034-1.853l.345-.167c-.173-.5-.345-1.815 0-2.255-.47-.234-.864-.6-1.135-1.056a5.446 5.446 0 0 1 -.454-1.2c.263-.528.454-.704.677-1.223.186 0 .358-.1.453-.264.427-.088.686-.528 1.203-.264.33.036.651.125.953.264-.03.174.034.351.168.464.517 0 .517.518.78.963a2.2 2.2 0 0 0 .69.083c.518.167.949.167 1.121.403a3.345 3.345 0 0 1 2.16-.403c.138-.34.255-.69.35-1.046.082.254.082 0 .254 0 .318-.264.713-.704 1.312-.528.345.264.948.088 1.293.528.259.342.431.87.69 1.287-.259.519 0 1.223-.518 1.487l-.517.528c-.172 0-.172.176-.431.176.202.69.14 1.434-.172 2.08.172-.075.43-.075.43-.325.087.088 0 .25 0 .324v.255a1.838 1.838 0 0 1 -.608 1.232c-.167.533-.603 1.237-1.161 1.325v.176a7.4 7.4 0 0 1 3.494.963zm3.513 5.507-.454.176a2.463 2.463 0 0 1 -1.815-.62c.345 0 .78-.464.78-.464.407.435.921.749 1.489.908zm-2.437-1.982c-.486 0-1.089.264-1.362-.264.196-.154.372-.333.522-.533zm7.007 8.193c0 .463-.513.968-.69 1.32.177-.463.177-1.32 0-1.32-.172-.088-.517 0-.517-.18 0-.265.086-.612.086-.788 0-.357-.259-.533-.259-.709 0-.528.609-.616.781-.968.075.376.104.76.086 1.144 0 .176.259.709 0 1.149.014.264.527.088.527.352zm-1.97-.959c0 .524-.34.968-.426 1.496a1.779 1.779 0 0 0 -.427-1.32c0-.176.245-.176.082-.463 0 0-.454-.264-.454-.616s.313-.616.454-.88c0-.088.345.176.345.704.007.18-.024.36-.091.528-.091.273.517.273.517.551zm-7.061-6.224c-.454.088-.776-.352-1.207-.528a12.01 12.01 0 0 0 -.345-1.278c.345.264 1.12.264.948 1.06 0 .218.359.394.604.746zm2.387 2.469a2.179 2.179 0 0 1 -1.262-.264 2.915 2.915 0 0 1 -.953-.709c.295-.17.613-.294.944-.366.35.366.667.987 1.271 1.339zm-14.432-13.525-.599.176.082-.463c.143-.276.317-.534.517-.77zm11.01 12.185c-.35.088-.953.264-1.116-.176a2.126 2.126 0 0 1 0-2.07c.142.477.254.963.336 1.454.09.366.608.547.78.792zm-2.432-4.784c-.091.528-.259 1.32-.78 1.677a1.319 1.319 0 0 0 -.341-.797c-.091 0 0 .264-.091.264a8.065 8.065 0 0 0 -.168.885.959.959 0 0 1 -.867.083v-.264a1.964 1.964 0 0 1 -.086-.704l-.086-.088c-.259.088-.259.264-.259.463-.135.18-.222.392-.254.616a1.16 1.16 0 0 1 -.78-.264v-.792c0-.176 0-.176-.087-.176l-.454.463c-.345-.264-.43-.968-.43-1.39 1.383-.791 3.108-.527 4.152-.087.186.023.358.023.53.111zm4.415 7.1h-.258c-.949.32-1.725-.26-2.505-.792a4.455 4.455 0 0 1 1.57-.273l.259.528c.328.147.641.327.934.537zm-12.806-13.278-.432.532c.087.843-.258 1.46-.258 2.256l-.431-1.413c.08-.391.226-.766.43-1.107l.69-.268zm8.822 11.328c-.454-.26-1.212-.347-1.035-.88.172-.463.431-.528.604-.7a4.54 4.54 0 0 0 .43 1.58zm7.924 8.962h-.087c-.172-.268-.258-.463-.431-.463.259-.968-.258-1.76-.426-2.552v-.264c.258.463.944.88.857 1.32.066.651.094 1.305.087 1.96zm-1.984-3.274c-.453 0-.776 0-1.034-.463-.087 0-.232-.26-.318-.084-.427.348-.862-.264-1.361-.176-.252.276-.585.46-.949.524v-.065a.823.823 0 0 1 .513-.695c.517.176.948-.973 1.47-.357.213.067.436.097.658.088.595.27.763.783 1.021 1.228zm-7.842-7.096c0 .616-.086 1.39-.69 1.677l-.172-.88c.33-.213.622-.483.862-.797zm2.877 3.821a1.644 1.644 0 0 1 -.966.348 8.438 8.438 0 0 1 -1.362-1.63l1.362.263c.346.316.669.656.966 1.02zm5.147 5.021c-.345-.269-.862-.269-1.039-.709a3.495 3.495 0 0 0 -.999-.088c-.37.073-.748.102-1.125.088-.091 0 0-.088-.173-.176-.517.176-1.039.176-1.556.709l.43-1.06c.265-.04.526-.099.781-.177a3.18 3.18 0 0 1 .863-.088v.088c.953 0 2.042-.088 2.723.704zm-9.835-7.434c-.517-.523-.952-.968-.952-1.496.27-.028.542.034.776.176 0 .44.176.797.176 1.32zm-1.638-2.505-.263 1.097a5.232 5.232 0 0 1 -.604-1.63zm12.331 11.727a6.517 6.517 0 0 0 -.35 1.046c-.172-.532-.345-1.306-.948-1.306a1.045 1.045 0 0 0 -.518-.718l-.662-.087c.086.347.572.347.24.805.332.26.595.26.763.686.177.268 0 .62.09.792l-.521.264c0-.436.09-1.297-.486-1.482-.513.185-.604-.528-.949-.718-.172 0-.172-.436-.431-.26-.43.26-.948 0-1.361.26l.431-.704c.345-.264.69-.176 1.035-.264l.69-.083c.689 0 1.266.347 1.956.616a.85.85 0 0 1 .499.829c.172.064.522.064.522.324zm-6.808-4.062h-.172a2.707 2.707 0 0 1 -.862-.463 2.064 2.064 0 0 1 -.082-.533h.68zm-6.648-6.3a2.978 2.978 0 0 1 -1.362-1.101 2.915 2.915 0 0 1 -.24-1.061c.278.023.52.201.63.463v.093c.454.528.886.898.972 1.607zm4.143 3.09c-.082.491-.345.663-.776 1.279-.254.175-.78.264-1.293.527.086-.264.34-.352.513-.616.233-.296.437-.616.608-.954a1.55 1.55 0 0 1 .948-.236zm6.317 8.5-.258.263c-.259-.264-.087-.968-.518-1.056-.43 0-.776-.426-.948-.514l.345-.171a.41.41 0 0 1 .345 0c.172.171.345.259.345.463.172.24.431 0 .608.24.102.241.13.508.081.765zm-7.873-9.213c-.255.528-.513 1.024-1.03 1.195a2.82 2.82 0 0 1 -1.212 0c.258-.171.517-.255.866-.491l.686-.704zm1.729 4.006c-.294.233-.682.3-1.035.18l-.517-.694h1.297zm-6.227-6.65c-.454.462-.867.615-1.04 1.148a1.786 1.786 0 0 0 -.167-.709c.071-.246.222-.462.427-.611.258.083.43.083.78.171zm.962 1.324a1.893 1.893 0 0 1 -.549 1.232 3.278 3.278 0 0 1 -.327.264c0-.528.245-.968.245-1.39.241-.106.477-.282.631-.106zm1.207 1.056-.344 1.288c-.432.342-1.017.17-1.494.17.631-.17 1.149-.925 1.493-1.458.087-.088.173 0 .345 0zm.431 4.45c0 .265-.086 1.32-.086 1.32-.172-.615-.603-1.236-1.12-1.236a2.16 2.16 0 0 1 -.586-.787c-.236-.269-.477 0-.808-.269a1.746 1.746 0 0 0 -1.125.269v-.269l.603-.704c.608.088 1.33 0 1.484.463.355.177.677.417.949.709v.264c.19.06.517.153.69.24zm-.43 2.734-.604.537c-.173-.19 0-.625-.259-.894 0-.176.173-.264.086-.348-.086-.175-1.062-.532-1.062-.532-.387-.27-.758-.564-1.111-.88-.345-.088-.604.088-1.035.176v-.176c.172-.352.172-.797.69-.797.258 0 .603 0 .776.264.35 0 .522.357.762.463.289.31.619.577.98.792a.545.545 0 0 0 .254.514c.522 0 .35.524.522.88zm-1.29 1.25-.23.88-.564-1.575c-.694-.625-1.47-.718-1.901-1.07-.345-.088-.345.176-.517 0a.904.904 0 0 1 .258-.704h.517l.518.264c.259.269.862.269.862.792 0 .093-.086.181.177.528l.808.19.073.695zm-2.35.88c0 .7-1.121 1.667-1.121 1.667 0-.435.258-.968.258-1.496a1.216 1.216 0 0 0 -.694-.352c-.259.181-.259.352-.345.616-.258.533-.776 1.061-.862 1.589a.087.087 0 0 1 -.086-.088c0-.88.086-2.38.603-2.983a1.64 1.64 0 0 1 1.28-.63l.454.084-.345.528c.345.185.858.514.858 1.065zm-3.027-.533c.008.341-.08.677-.254.968-.087-.347-.332-.787-.745-.787-.345.7-.43.968-.09 2.02-.22.227-.483.408-.772.532a3.402 3.402 0 0 1 -.177-1.32 5.554 5.554 0 0 1 .263-1.741c.254-.274.431-.714.686-.904h.907c-.417 0-.417.37-.417.63.258.07.599.162.599.584zm-2.206.968c-.09 0-.35-.264-.603-.264-.25.528 0 .885 0 1.496-.005.181-.036.36-.091.533-.159 0-.454-.352-.545-.704v-1.39l.722-.949c.445.24.662.768.517 1.26zm17.7-24.31a1.848 1.848 0 0 0 -.173-1.64c-.173-.352-.604-.528-1.035-.871l-.594.343a1.03 1.03 0 0 0 -.454.926c.603.342 1.093.86 1.407 1.487h.263c.236-.264.408.009.58-.264l.005.018zm-2.869.527c0-.264-.086-.264-.168-.264-.43 0-.43-.704-.78-.528-.168 0-.34-.176-.6 0 0 .088 0 .088.168.088.432 0 .264.616.609.704zm1.312 1.056s.172 0 0-.083l-1.817-.269c-.167.269-.603.269-.603.528h-.173c.147.74.205 1.493.173 2.247a.773.773 0 0 1 .69.792c.356.142.698.319 1.02.528.16-.084.237-.348.318-.612-.317-.463-1.08-.18-1.08-.972l-.512-.176a6.298 6.298 0 0 0 -.091-1.39l.09-.065c0 .065.082.158.255.338.35.074.715.01 1.02-.18.16-.093.16-.519.318-.519.16 0 .314-.01.386-.185l.005.018zm-4.244-1.852c-.168-.176-.694.088-.948.176a.734.734 0 0 0 -.604.616h.949c.15-.304.353-.577.599-.806zm-1.901-.96c-.086-.856-1.035-.925-1.466-1.287h-.345c-.671.255-.83.964-.907 1.543.236.792.735.264 1.08.792a9.727 9.727 0 0 1 1.633-1.061l.005.014zm5.096 8.046v-.45h-.844l-.081.089zm-3.888-5.062c0-.176-.172-.352-.426-.528h-2.075a.515.515 0 0 0 .146.379c.098.1.233.154.372.149 0 .36.258.426.35.518.258.181.34.181.603 0 .254.181.34-.157.431 0 .019.403-.012.806-.09 1.2-.087.616-.604.528-1.035.792 0 .264-.26.709 0 .973.27-.189.56-.344.866-.464 0-.264.259-.528.604-.704-.005-.787.25-1.542.25-2.33zm-.69 4.631c-.168-.352-.603 0-1.034-.176a.526.526 0 0 0 .263.528c.21-.204.479-.333.767-.37z" fill="#ff6200"/></g></svg>